<svg xmlns="http://www.w3.org/2000/svg" width="900" height="640" viewBox="0 0 900 640" font-family="Arial, sans-serif">
  <defs>
    <marker id="arr" markerWidth="10" markerHeight="7" refX="9" refY="3.5" orient="auto">
      <polygon points="0 0, 10 3.5, 0 7" fill="#555"/>
    </marker>
    <marker id="arr-purple" markerWidth="10" markerHeight="7" refX="9" refY="3.5" orient="auto">
      <polygon points="0 0, 10 3.5, 0 7" fill="#8b5cf6"/>
    </marker>
    <marker id="arr-green" markerWidth="10" markerHeight="7" refX="9" refY="3.5" orient="auto">
      <polygon points="0 0, 10 3.5, 0 7" fill="#22c55e"/>
    </marker>
    <marker id="arr-orange" markerWidth="10" markerHeight="7" refX="9" refY="3.5" orient="auto">
      <polygon points="0 0, 10 3.5, 0 7" fill="#f59e0b"/>
    </marker>
    <marker id="arr-left" markerWidth="10" markerHeight="7" refX="1" refY="3.5" orient="auto">
      <polygon points="10 0, 0 3.5, 10 7" fill="#22c55e"/>
    </marker>
  </defs>

  <!-- Title -->
  <text x="450" y="28" text-anchor="middle" font-size="17" font-weight="bold" fill="#1e1e1e">Turnero PERN — Flujo de Autenticacion</text>

  <!-- ── ACTOR HEADERS ── -->
  <!-- Usuario: center=85 -->
  <rect x="20" y="44" width="130" height="36" rx="8" fill="#a5d8ff" stroke="#4a9eed" stroke-width="2"/>
  <text x="85" y="67" text-anchor="middle" font-size="13" font-weight="bold" fill="#1e3a5f">Usuario</text>

  <!-- Frontend: center=245 -->
  <rect x="180" y="44" width="130" height="36" rx="8" fill="#d0bfff" stroke="#8b5cf6" stroke-width="2"/>
  <text x="245" y="67" text-anchor="middle" font-size="13" font-weight="bold" fill="#2d1b69">Frontend</text>

  <!-- Backend: center=405 -->
  <rect x="340" y="44" width="130" height="36" rx="8" fill="#b2f2bb" stroke="#22c55e" stroke-width="2"/>
  <text x="405" y="67" text-anchor="middle" font-size="13" font-weight="bold" fill="#1a4d2e">Backend</text>

  <!-- PostgreSQL: center=565 -->
  <rect x="500" y="44" width="130" height="36" rx="8" fill="#c3fae8" stroke="#22c55e" stroke-width="2"/>
  <text x="565" y="67" text-anchor="middle" font-size="13" font-weight="bold" fill="#1a4d4d">PostgreSQL</text>

  <!-- Nodemailer: center=725 -->
  <rect x="660" y="44" width="130" height="36" rx="8" fill="#ffd8a8" stroke="#f59e0b" stroke-width="2"/>
  <text x="725" y="67" text-anchor="middle" font-size="13" font-weight="bold" fill="#5c3d1a">Nodemailer</text>

  <!-- ── LIFELINES ── -->
  <line x1="85"  y1="80" x2="85"  y2="615" stroke="#ccc" stroke-width="1.5" stroke-dasharray="5,4"/>
  <line x1="245" y1="80" x2="245" y2="615" stroke="#ccc" stroke-width="1.5" stroke-dasharray="5,4"/>
  <line x1="405" y1="80" x2="405" y2="615" stroke="#ccc" stroke-width="1.5" stroke-dasharray="5,4"/>
  <line x1="565" y1="80" x2="565" y2="615" stroke="#ccc" stroke-width="1.5" stroke-dasharray="5,4"/>
  <line x1="725" y1="80" x2="725" y2="615" stroke="#ccc" stroke-width="1.5" stroke-dasharray="5,4"/>

  <!-- ── SECTION: REGISTRO ── -->
  <rect x="10" y="96" width="880" height="202" rx="6" fill="#dbe4ff" fill-opacity="0.35" stroke="#4a9eed" stroke-width="0.5"/>
  <text x="16" y="112" font-size="12" font-weight="bold" fill="#3b82f6">Registro</text>

  <!-- m1: Usuario → Frontend -->
  <line x1="88" y1="128" x2="241" y2="128" stroke="#8b5cf6" stroke-width="2" marker-end="url(#arr-purple)"/>
  <text x="165" y="122" text-anchor="middle" font-size="11" fill="#555">Completa formulario + foto</text>

  <!-- m2: Frontend → Backend -->
  <line x1="248" y1="158" x2="401" y2="158" stroke="#8b5cf6" stroke-width="2" marker-end="url(#arr-purple)"/>
  <text x="324" y="152" text-anchor="middle" font-size="11" fill="#555">POST /registerUser</text>

  <!-- m3: Backend → PostgreSQL -->
  <line x1="408" y1="188" x2="561" y2="188" stroke="#22c55e" stroke-width="2" marker-end="url(#arr-green)"/>
  <text x="485" y="182" text-anchor="middle" font-size="11" fill="#555">INSERT usuario (is_confirmed=false)</text>

  <!-- m4: Backend → Nodemailer -->
  <line x1="408" y1="218" x2="721" y2="218" stroke="#f59e0b" stroke-width="2" marker-end="url(#arr-orange)"/>
  <text x="562" y="212" text-anchor="middle" font-size="11" fill="#555">Enviar email con token JWT (1h)</text>

  <!-- m5: Backend → Frontend (dashed return) -->
  <line x1="402" y1="270" x2="249" y2="270" stroke="#22c55e" stroke-width="1.5" stroke-dasharray="6,3" marker-end="url(#arr-left)"/>
  <text x="325" y="264" text-anchor="middle" font-size="11" fill="#555">200 OK</text>

  <!-- ── SECTION: CONFIRMACION ── -->
  <rect x="10" y="308" width="880" height="110" rx="6" fill="#e5dbff" fill-opacity="0.35" stroke="#8b5cf6" stroke-width="0.5"/>
  <text x="16" y="324" font-size="12" font-weight="bold" fill="#7c3aed">Confirmacion de cuenta</text>

  <!-- m6: Usuario → Frontend -->
  <line x1="88" y1="340" x2="241" y2="340" stroke="#8b5cf6" stroke-width="2" marker-end="url(#arr-purple)"/>
  <text x="165" y="334" text-anchor="middle" font-size="11" fill="#555">Click en link del email</text>

  <!-- m7: Frontend → Backend -->
  <line x1="248" y1="368" x2="401" y2="368" stroke="#8b5cf6" stroke-width="2" marker-end="url(#arr-purple)"/>
  <text x="324" y="362" text-anchor="middle" font-size="11" fill="#555">GET /confirmRegister/:token</text>

  <!-- m8: Backend → PostgreSQL -->
  <line x1="408" y1="398" x2="561" y2="398" stroke="#22c55e" stroke-width="2" marker-end="url(#arr-green)"/>
  <text x="485" y="392" text-anchor="middle" font-size="11" fill="#555">UPDATE is_confirmed=true</text>

  <!-- ── SECTION: LOGIN ── -->
  <rect x="10" y="428" width="880" height="182" rx="6" fill="#d3f9d8" fill-opacity="0.35" stroke="#22c55e" stroke-width="0.5"/>
  <text x="16" y="444" font-size="12" font-weight="bold" fill="#15803d">Login y sesion</text>

  <!-- m9: Usuario → Frontend -->
  <line x1="88" y1="460" x2="241" y2="460" stroke="#8b5cf6" stroke-width="2" marker-end="url(#arr-purple)"/>
  <text x="165" y="454" text-anchor="middle" font-size="11" fill="#555">Email + contrasena</text>

  <!-- m10: Frontend → Backend -->
  <line x1="248" y1="488" x2="401" y2="488" stroke="#8b5cf6" stroke-width="2" marker-end="url(#arr-purple)"/>
  <text x="324" y="482" text-anchor="middle" font-size="11" fill="#555">POST /loginUser</text>

  <!-- m11: Backend → PostgreSQL -->
  <line x1="408" y1="516" x2="561" y2="516" stroke="#22c55e" stroke-width="2" marker-end="url(#arr-green)"/>
  <text x="485" y="510" text-anchor="middle" font-size="11" fill="#555">SELECT + bcrypt.compare</text>

  <!-- m12: Backend → Frontend (dashed return) Set-Cookie -->
  <line x1="402" y1="546" x2="249" y2="546" stroke="#22c55e" stroke-width="1.5" stroke-dasharray="6,3" marker-end="url(#arr-left)"/>
  <text x="325" y="540" text-anchor="middle" font-size="11" fill="#555">Set-Cookie JWT (httpOnly, 7d)</text>

  <!-- m13: Frontend → Backend GET /me -->
  <line x1="248" y1="574" x2="401" y2="574" stroke="#8b5cf6" stroke-width="2" marker-end="url(#arr-purple)"/>
  <text x="324" y="568" text-anchor="middle" font-size="11" fill="#555">GET /me (cookie automatica)</text>

  <!-- m14: Backend → Frontend (dashed return) { id, role } -->
  <line x1="402" y1="600" x2="249" y2="600" stroke="#22c55e" stroke-width="1.5" stroke-dasharray="6,3" marker-end="url(#arr-left)"/>
  <text x="325" y="594" text-anchor="middle" font-size="11" fill="#555">{ id, role }</text>
</svg>
